# xmcd CD database file
#
# Track frame offsets:
#	150
#	17525
#	37421
#	56138
#	77186
#	100099
#	120931
#	143736
#	165664
#	186475
#	207997
#	233114
#	254775
#	276845
#	300684
#
# Disc length: 4357 seconds
#
# Revision: 0
# Processed by: cddbd v1.5.1PL0 Copyright (c) Steve Scherf et al.
# Submitted via: CDex 1.51
#
DISCID=d911030f
DTITLE=Various Artist - Congreso Bacardi de la Salsa
DYEAR=2000
DGENRE=Salsa
TTITLE0=La Sandunguita
TTITLE1=Tu Mama No Quiso
TTITLE2=Salsumba
TTITLE3=Que Me Quiten Lo Baila'o
TTITLE4=Que Tiene Esa Mujer
TTITLE5=Si Llego A Ser Adivina
TTITLE6=Nave De Papel
TTITLE7=Almohada
TTITLE8=Hasta Cuando
TTITLE9=Al Mirarte A Ti
TTITLE10=Malagueña Salerosa
TTITLE11=Baila Que Baila
TTITLE12=Bembelequa
TTITLE13=Un Tipo Con Suerte
TTITLE14=Salsa Remix
EXTD=YEAR: 2000
EXTT0=
EXTT1=
EXTT2=
EXTT3=
EXTT4=
EXTT5=
EXTT6=
EXTT7=
EXTT8=
EXTT9=
EXTT10=
EXTT11=
EXTT12=
EXTT13=
EXTT14=
PLAYORDER=
